<svg xmlns="http://www.w3.org/2000/svg" xmlns:xlink="http://www.w3.org/1999/xlink" width="1920" height="1080.001" viewBox="0 0 1920 1080.001">
  <defs>
    <radialGradient id="radial-gradient" cx="0.5" cy="0.5" r="0.5" gradientUnits="objectBoundingBox">
      <stop offset="0" stop-color="#fff" stop-opacity="0"/>
      <stop offset="0.916"/>
      <stop offset="1"/>
    </radialGradient>
  </defs>
  <path id="Subtraction_1" data-name="Subtraction 1" d="M1920,1080H0V0H1920V1080ZM955,61c-29.88,0-60.014.834-89.566,2.478-29.125,1.621-58.389,4.068-86.978,7.274C750.235,73.916,721.99,77.9,694.5,82.58c-27.179,4.632-54.257,10.063-80.483,16.141-25.982,6.021-51.745,12.822-76.575,20.213C512.8,126.27,488.5,134.36,465.22,142.977c-23.163,8.574-45.852,17.871-67.438,27.632-21.532,9.737-42.461,20.16-62.208,30.98s-38.768,22.288-56.539,34.086c-17.813,11.827-34.78,24.26-50.429,36.952A548.576,548.576,0,0,0,184.729,312.2a453.926,453.926,0,0,0-36.888,41.959,377.706,377.706,0,0,0-29.457,44.1,321.312,321.312,0,0,0-21.586,46,285.251,285.251,0,0,0-13.275,47.66,268.541,268.541,0,0,0,0,98.154A285.277,285.277,0,0,0,96.8,637.737a321.309,321.309,0,0,0,21.586,46,377.709,377.709,0,0,0,29.457,44.1A453.955,453.955,0,0,0,184.729,769.8a548.581,548.581,0,0,0,43.879,39.576c15.649,12.693,32.616,25.125,50.429,36.952,17.769,11.8,36.791,23.266,56.539,34.086s40.678,21.244,62.208,30.98c21.586,9.761,44.275,19.058,67.438,27.632,23.278,8.617,47.578,16.706,72.226,24.043,24.826,7.39,50.59,14.19,76.575,20.213,26.229,6.079,53.308,11.51,80.483,16.141,27.485,4.684,55.731,8.664,83.951,11.828,28.589,3.206,57.853,5.653,86.978,7.274C894.986,1020.166,925.12,1021,955,1021s60.014-.834,89.566-2.478c29.125-1.621,58.389-4.068,86.979-7.274,28.221-3.164,56.466-7.144,83.951-11.828,27.176-4.632,54.255-10.062,80.483-16.141,25.987-6.023,51.751-12.823,76.575-20.213,24.647-7.337,48.948-15.426,72.226-24.043,23.163-8.575,45.852-17.871,67.437-27.632,21.532-9.737,42.462-20.16,62.208-30.98s38.769-22.289,56.539-34.086c17.812-11.826,34.779-24.259,50.429-36.952a548.626,548.626,0,0,0,43.879-39.576,454,454,0,0,0,36.888-41.959,377.715,377.715,0,0,0,29.457-44.1,321.29,321.29,0,0,0,21.586-46,285.294,285.294,0,0,0,13.275-47.66,268.543,268.543,0,0,0,0-98.154,285.27,285.27,0,0,0-13.275-47.66,321.293,321.293,0,0,0-21.586-46,377.713,377.713,0,0,0-29.457-44.1,453.969,453.969,0,0,0-36.888-41.959,548.62,548.62,0,0,0-43.879-39.576c-15.649-12.693-32.616-25.125-50.429-36.952-17.771-11.8-36.793-23.267-56.539-34.086s-40.674-21.242-62.208-30.98c-21.585-9.761-44.274-19.058-67.437-27.632-23.279-8.617-47.579-16.707-72.226-24.043-24.828-7.39-50.592-14.191-76.575-20.213-26.225-6.078-53.3-11.509-80.483-16.141-27.485-4.684-55.73-8.664-83.951-11.828-28.59-3.206-57.854-5.653-86.979-7.274C1015.014,61.834,984.88,61,955,61Z" opacity="0.644" fill="url(#radial-gradient)"/>
</svg>
