<svg xmlns="http://www.w3.org/2000/svg" width="31.56" height="36.004" viewBox="0 0 31.56 36.004">
  <path id="Icon_simple-nintendogamecube" data-name="Icon simple-nintendogamecube" d="M10.222,22.692l7.056,4.073V18.615l-7.059-4.071v8.15ZM7.185,24.444l10.1,5.825V36L2.22,27.31V9.925L7.185,12.79V24.445ZM18,9.219,10.946,13.3,18,17.37l7.057-4.076L18,9.22Zm0-3.5,8.49,4.912,4.965-2.865L18,0,2.96,8.685l4.961,2.86ZM28.812,24.444V18.522l-3.035,1.75v2.421l-7.056,4.073V18.619L33.78,9.93V27.312L18.72,36V30.279l10.092-5.832Z" transform="translate(-2.22)" fill="#fff"/>
</svg>
